<svg width="19" height="31" viewBox="0 0 19 31" fill="none" xmlns="http://www.w3.org/2000/svg">
<path d="M18.3333 1.68746C18.3333 1.47198 18.2455 1.26531 18.0893 1.11294C17.933 0.960567 17.721 0.874965 17.5 0.874965H13.3333C11.2352 0.773062 9.181 1.48498 7.61954 2.85516C6.05808 4.22534 5.11631 6.1424 5 8.18746V12.575H0.833333C0.61232 12.575 0.400358 12.6606 0.244078 12.8129C0.0877975 12.9653 0 13.172 0 13.3875V17.6125C0 17.828 0.0877975 18.0346 0.244078 18.187C0.400358 18.3394 0.61232 18.425 0.833333 18.425H5V29.3125C5 29.528 5.0878 29.7346 5.24408 29.887C5.40036 30.0394 5.61232 30.125 5.83333 30.125H10.8333C11.0543 30.125 11.2663 30.0394 11.4226 29.887C11.5789 29.7346 11.6667 29.528 11.6667 29.3125V18.425H16.0333C16.2187 18.4276 16.3996 18.3698 16.5475 18.261C16.6954 18.1521 16.8018 17.9982 16.85 17.8237L18.05 13.5987C18.0832 13.4787 18.0876 13.3528 18.063 13.2308C18.0384 13.1088 17.9855 12.9939 17.9082 12.895C17.8309 12.7961 17.7314 12.7159 17.6173 12.6604C17.5032 12.6049 17.3775 12.5757 17.25 12.575H11.6667V8.18746C11.7081 7.78524 11.9019 7.41252 12.21 7.14209C12.5182 6.87166 12.9187 6.72294 13.3333 6.72496H17.5C17.721 6.72496 17.933 6.63936 18.0893 6.48699C18.2455 6.33462 18.3333 6.12795 18.3333 5.91246V1.68746Z" fill="white"/>
</svg>
