<svg width="38" height="37" viewBox="0 0 38 37" fill="none" xmlns="http://www.w3.org/2000/svg">
<path fill-rule="evenodd" clip-rule="evenodd" d="M11.4417 0.73225C13.3967 0.6445 14.0201 0.625 19.0001 0.625C23.9801 0.625 24.6034 0.646125 26.5567 0.73225C28.5101 0.818375 29.8434 1.12225 31.0101 1.56263C32.2317 2.01275 33.3401 2.71637 34.2567 3.62637C35.1901 4.5185 35.9101 5.5975 36.3701 6.79025C36.8234 7.92775 37.1334 9.22775 37.2234 11.129C37.3134 13.0384 37.3334 13.6461 37.3334 18.5C37.3334 23.3555 37.3117 23.9632 37.2234 25.8694C37.1351 27.7706 36.8234 29.0706 36.3701 30.2081C35.9101 31.401 35.1889 32.4818 34.2567 33.3752C33.3401 34.2852 32.2317 34.9873 31.0101 35.4358C29.8434 35.8778 28.5101 36.18 26.5601 36.2678C24.6034 36.3555 23.9801 36.375 19.0001 36.375C14.0201 36.375 13.3967 36.3539 11.4417 36.2678C9.49175 36.1816 8.15842 35.8778 6.99175 35.4358C5.76828 34.9872 4.65978 34.284 3.74341 33.3752C2.81071 32.4826 2.08894 31.4023 1.62841 30.2097C1.17675 29.0722 0.866748 27.7722 0.776748 25.871C0.686748 23.9616 0.666748 23.3539 0.666748 18.5C0.666748 13.6445 0.688415 13.0368 0.776748 11.1323C0.865081 9.22775 1.17675 7.92775 1.62841 6.79025C2.08962 5.59763 2.81195 4.51738 3.74508 3.62475C4.66015 2.71556 5.76754 2.01185 6.99008 1.56263C8.15675 1.12225 9.49008 0.82 11.4401 0.73225H11.4417ZM26.4084 3.94975C24.4751 3.86363 23.8951 3.84575 19.0001 3.84575C14.1051 3.84575 13.5251 3.86363 11.5917 3.94975C9.80341 4.02938 8.83342 4.32025 8.18675 4.56562C7.33175 4.89062 6.72008 5.27575 6.07842 5.90138C5.47016 6.47833 5.00205 7.18071 4.70841 7.957C4.45675 8.5875 4.15841 9.53325 4.07675 11.2769C3.98841 13.1619 3.97008 13.7274 3.97008 18.5C3.97008 23.2726 3.98841 23.8381 4.07675 25.7231C4.15841 27.4667 4.45675 28.4125 4.70841 29.043C5.00175 29.8181 5.47008 30.5218 6.07842 31.0986C6.67008 31.6918 7.39175 32.1484 8.18675 32.4344C8.83342 32.6798 9.80341 32.9706 11.5917 33.0503C13.5251 33.1364 14.1034 33.1542 19.0001 33.1542C23.8967 33.1542 24.4751 33.1364 26.4084 33.0503C28.1967 32.9706 29.1668 32.6798 29.8134 32.4344C30.6684 32.1094 31.2801 31.7243 31.9217 31.0986C32.5301 30.5218 32.9984 29.8181 33.2918 29.043C33.5434 28.4125 33.8418 27.4667 33.9234 25.7231C34.0118 23.8381 34.0301 23.2726 34.0301 18.5C34.0301 13.7274 34.0118 13.1619 33.9234 11.2769C33.8418 9.53325 33.5434 8.5875 33.2918 7.957C32.9584 7.12338 32.5634 6.527 31.9217 5.90138C31.33 5.30837 30.6096 4.85197 29.8134 4.56562C29.1668 4.32025 28.1967 4.02938 26.4084 3.94975V3.94975ZM16.6584 24.0104C17.9662 24.5412 19.4224 24.6128 20.7783 24.213C22.1342 23.8133 23.3057 22.967 24.0928 21.8186C24.8798 20.6703 25.2335 19.2912 25.0935 17.9168C24.9535 16.5424 24.3284 15.2581 23.3251 14.2831C22.6855 13.6599 21.9121 13.1827 21.0606 12.8859C20.2092 12.589 19.3008 12.48 18.4009 12.5665C17.501 12.653 16.632 12.933 15.8564 13.3863C15.0808 13.8396 14.418 14.455 13.9156 15.188C13.4132 15.9211 13.0837 16.7536 12.9509 17.6257C12.8182 18.4978 12.8853 19.3877 13.1476 20.2315C13.41 21.0752 13.8609 21.8517 14.4679 22.5052C15.075 23.1586 15.8231 23.6727 16.6584 24.0104ZM12.3367 12.0032C13.2118 11.1501 14.2506 10.4733 15.3939 10.0116C16.5372 9.54986 17.7626 9.31221 19.0001 9.31221C20.2376 9.31221 21.463 9.54986 22.6063 10.0116C23.7495 10.4733 24.7884 11.1501 25.6634 12.0032C26.5385 12.8564 27.2326 13.8693 27.7061 14.984C28.1797 16.0987 28.4235 17.2934 28.4235 18.5C28.4235 19.7066 28.1797 20.9013 27.7061 22.016C27.2326 23.1307 26.5385 24.1436 25.6634 24.9968C23.8962 26.7198 21.4993 27.6878 19.0001 27.6878C16.5008 27.6878 14.104 26.7198 12.3367 24.9968C10.5695 23.2737 9.57671 20.9368 9.57671 18.5C9.57671 16.0632 10.5695 13.7263 12.3367 12.0032V12.0032ZM30.5134 10.6805C30.7303 10.4811 30.9039 10.2412 31.0239 9.97521C31.144 9.70918 31.2081 9.42237 31.2124 9.13176C31.2168 8.84115 31.1613 8.55264 31.0492 8.28332C30.9372 8.01399 30.7708 7.76933 30.56 7.56381C30.3492 7.3583 30.0983 7.19611 29.8221 7.08684C29.5458 6.97758 29.2499 6.92346 28.9519 6.9277C28.6538 6.93193 28.3596 6.99444 28.0868 7.11151C27.8139 7.22858 27.568 7.39783 27.3634 7.60925C26.9656 8.02042 26.7478 8.56657 26.7563 9.13176C26.7647 9.69695 26.9987 10.2367 27.4087 10.6364C27.8186 11.0361 28.3722 11.2642 28.9519 11.2725C29.5315 11.2807 30.0917 11.0684 30.5134 10.6805V10.6805Z" fill="white"/>
</svg>
