<svg width="22" height="22" viewBox="0 0 22 22" fill="none" xmlns="http://www.w3.org/2000/svg">
<path d="M10.9999 7.35507C8.99285 7.35507 7.35496 8.99296 7.35496 11C7.35496 13.007 8.99285 14.6449 10.9999 14.6449C13.0069 14.6449 14.6448 13.007 14.6448 11C14.6448 8.99296 13.0069 7.35507 10.9999 7.35507ZM21.9319 11C21.9319 9.49062 21.9456 7.99492 21.8608 6.48828C21.7761 4.73828 21.3768 3.18515 20.0972 1.90546C18.8147 0.623042 17.2643 0.226558 15.5143 0.141792C14.005 0.0570267 12.5093 0.0706986 11.0026 0.0706986C9.49324 0.0706986 7.99754 0.0570267 6.4909 0.141792C4.7409 0.226558 3.18778 0.625777 1.90809 1.90546C0.625667 3.18789 0.229182 4.73828 0.144417 6.48828C0.0596512 7.99765 0.0733231 9.49335 0.0733231 11C0.0733231 12.5066 0.0596512 14.0051 0.144417 15.5117C0.229182 17.2617 0.628401 18.8148 1.90809 20.0945C3.19051 21.3769 4.7409 21.7734 6.4909 21.8582C8.00028 21.943 9.49598 21.9293 11.0026 21.9293C12.512 21.9293 14.0077 21.943 15.5143 21.8582C17.2643 21.7734 18.8175 21.3742 20.0972 20.0945C21.3796 18.8121 21.7761 17.2617 21.8608 15.5117C21.9483 14.0051 21.9319 12.5094 21.9319 11V11ZM10.9999 16.6082C7.89637 16.6082 5.39168 14.1035 5.39168 11C5.39168 7.89648 7.89637 5.39179 10.9999 5.39179C14.1034 5.39179 16.6081 7.89648 16.6081 11C16.6081 14.1035 14.1034 16.6082 10.9999 16.6082ZM16.8378 6.47187C16.1132 6.47187 15.528 5.88671 15.528 5.1621C15.528 4.4375 16.1132 3.85234 16.8378 3.85234C17.5624 3.85234 18.1475 4.4375 18.1475 5.1621C18.1478 5.33417 18.114 5.50458 18.0483 5.66359C17.9825 5.82259 17.8861 5.96706 17.7644 6.08873C17.6427 6.2104 17.4983 6.30687 17.3393 6.37261C17.1803 6.43836 17.0098 6.47209 16.8378 6.47187V6.47187Z" fill="white" fill-opacity="0.9"/>
</svg>
