<svg width="46" height="46" viewBox="0 0 46 46" fill="none" xmlns="http://www.w3.org/2000/svg">
<path d="M23 0.25C10.4367 0.25 0.25 10.4367 0.25 23C0.25 35.5633 10.4367 45.75 23 45.75C35.5633 45.75 45.75 35.5633 45.75 23C45.75 10.4367 35.5633 0.25 23 0.25ZM30.3176 23.3504L19.227 31.4195C19.1662 31.4632 19.0945 31.4893 19.0198 31.4949C18.9452 31.5005 18.8704 31.4854 18.8037 31.4513C18.7371 31.4172 18.6811 31.3654 18.642 31.3016C18.6029 31.2377 18.5822 31.1643 18.582 31.0895V14.9613C18.5818 14.8863 18.6023 14.8127 18.6414 14.7486C18.6804 14.6845 18.7364 14.6325 18.8032 14.5984C18.87 14.5642 18.9449 14.5492 19.0197 14.555C19.0945 14.5608 19.1662 14.5872 19.227 14.6313L30.3176 22.6953C30.37 22.7324 30.4127 22.7815 30.4422 22.8384C30.4717 22.8954 30.4871 22.9587 30.4871 23.0229C30.4871 23.087 30.4717 23.1503 30.4422 23.2073C30.4127 23.2642 30.37 23.3133 30.3176 23.3504Z" fill="#FFFDFD"/>
</svg>
