<svg width="27" height="22" viewBox="0 0 27 22" fill="none" xmlns="http://www.w3.org/2000/svg">
<path d="M26.5836 2.75982C25.6094 3.19149 24.5629 3.48316 23.4628 3.61499C24.5979 2.93575 25.4472 1.8667 25.8521 0.607322C24.7856 1.24081 23.6183 1.68672 22.4011 1.92566C21.5825 1.05166 20.4983 0.472369 19.3168 0.277708C18.1353 0.0830469 16.9225 0.283912 15.8669 0.849116C14.8112 1.41432 13.9717 2.31224 13.4786 3.40348C12.9855 4.49471 12.8666 5.7182 13.1401 6.88399C10.9791 6.77548 8.86499 6.2138 6.93509 5.23538C5.00519 4.25696 3.30258 2.88368 1.93776 1.20465C1.47109 2.00965 1.20276 2.94299 1.20276 3.93699C1.20224 4.83182 1.4226 5.71294 1.84429 6.50218C2.26597 7.29141 2.87595 7.96437 3.6201 8.46132C2.75708 8.43386 1.91311 8.20067 1.15843 7.78116V7.85115C1.15834 9.10619 1.59247 10.3226 2.38714 11.294C3.18182 12.2654 4.28809 12.9319 5.51826 13.1805C4.71768 13.3972 3.87832 13.4291 3.0636 13.2738C3.41068 14.3537 4.08676 15.298 4.99719 15.9746C5.90762 16.6511 7.00683 17.026 8.14093 17.0468C6.21573 18.5581 3.83813 19.3779 1.39059 19.3743C0.95704 19.3744 0.523851 19.3491 0.0932617 19.2985C2.57765 20.8959 5.46966 21.7436 8.42326 21.7403C18.4216 21.7403 23.8874 13.4593 23.8874 6.27732C23.8874 6.04399 23.8816 5.80832 23.8711 5.57499C24.9343 4.80612 25.852 3.85403 26.5813 2.76332L26.5836 2.75982Z" fill="white" fill-opacity="0.9"/>
</svg>
