<svg width="38" height="31" viewBox="0 0 38 31" fill="none" xmlns="http://www.w3.org/2000/svg">
<path d="M37.42 4.02257C36.0631 4.62382 34.6055 5.03007 33.0731 5.21369C34.6542 4.2676 35.8371 2.77857 36.4011 1.02444C34.9156 1.9068 33.2898 2.52788 31.5943 2.86069C30.4542 1.64335 28.9441 0.836472 27.2984 0.565337C25.6527 0.294202 23.9635 0.573978 22.4931 1.36123C21.0227 2.14848 19.8533 3.39916 19.1666 4.91909C18.4798 6.43902 18.3141 8.14316 18.6951 9.76694C15.6851 9.61581 12.7405 8.83346 10.0524 7.47066C7.36431 6.10787 4.99282 4.19508 3.09183 1.85644C2.44183 2.97769 2.06808 4.27769 2.06808 5.66219C2.06735 6.90856 2.37428 8.13584 2.96163 9.23513C3.54898 10.3344 4.39859 11.2718 5.43508 11.9639C4.23303 11.9257 3.0575 11.6009 2.00633 11.0166V11.1141C2.00621 12.8621 2.61088 14.5564 3.71775 15.9094C4.82462 17.2624 6.36551 18.1908 8.07895 18.5371C6.96385 18.8389 5.79475 18.8833 4.65995 18.6671C5.14339 20.1712 6.08507 21.4865 7.35318 22.4288C8.62128 23.3712 10.1523 23.8934 11.732 23.9223C9.05043 26.0274 5.73877 27.1692 2.3297 27.1642C1.72582 27.1644 1.12245 27.1291 0.522705 27.0586C3.9831 29.2835 8.01126 30.4643 12.1252 30.4597C26.0515 30.4597 33.6646 18.9254 33.6646 8.92194C33.6646 8.59694 33.6565 8.26869 33.6418 7.94369C35.1227 6.87277 36.4009 5.54665 37.4167 4.02744L37.42 4.02257V4.02257Z" fill="white"/>
</svg>
