<svg width="28" height="20" viewBox="0 0 28 20" fill="none" xmlns="http://www.w3.org/2000/svg">
<path d="M27.4167 3.59151C27.2581 3.02594 26.9493 2.51391 26.523 2.10984C26.0847 1.69334 25.5474 1.39542 24.962 1.24417C22.771 0.666674 13.993 0.666674 13.993 0.666674C10.3335 0.625039 6.67499 0.808161 3.03799 1.21501C2.45254 1.37742 1.91631 1.68201 1.47699 2.10167C1.04532 2.51701 0.732654 3.02917 0.569321 3.59034C0.176963 5.70404 -0.0136717 7.85024 -1.23747e-05 10C-0.0140124 12.1478 0.176154 14.2933 0.569321 16.4097C0.729154 16.9685 1.04065 17.4783 1.47349 17.8902C1.90632 18.302 2.44532 18.5995 3.03799 18.757C5.25815 19.3333 13.993 19.3333 13.993 19.3333C17.6571 19.375 21.3203 19.1919 24.962 18.785C25.5474 18.6338 26.0847 18.3358 26.523 17.9193C26.9491 17.5154 27.2576 17.0032 27.4155 16.4377C27.8181 14.3248 28.0139 12.1777 28 10.0268C28.0303 7.86688 27.8348 5.70967 27.4167 3.59034V3.59151ZM11.2023 13.9947V6.00651L18.5057 10.0012L11.2023 13.9947Z" fill="white" fill-opacity="0.9"/>
</svg>
