<svg width="39" height="27" viewBox="0 0 39 27" fill="none" xmlns="http://www.w3.org/2000/svg">
<path d="M38.1875 4.57388C37.9667 3.78613 37.5365 3.07294 36.9428 2.51013C36.3322 1.93001 35.584 1.51503 34.7685 1.30438C31.7168 0.500001 19.4903 0.500002 19.4903 0.500002C14.3932 0.44201 9.29735 0.697073 4.23153 1.26375C3.41609 1.48997 2.66919 1.91422 2.05728 2.49875C1.45603 3.07725 1.02053 3.79063 0.793026 4.57225C0.246527 7.51634 -0.0189991 10.5057 2.63603e-05 13.5C-0.0194736 16.4916 0.245401 19.48 0.793026 22.4278C1.01565 23.2061 1.44953 23.9163 2.0524 24.4899C2.65528 25.0635 3.40603 25.4779 4.23153 25.6973C7.3239 26.5 19.4903 26.5 19.4903 26.5C24.5939 26.5581 29.6962 26.303 34.7685 25.7363C35.584 25.5256 36.3322 25.1106 36.9428 24.5305C37.5363 23.9678 37.966 23.2545 38.1859 22.4668C38.7467 19.5238 39.0193 16.5332 39 13.5374C39.0422 10.5289 38.7699 7.52417 38.1875 4.57225V4.57388ZM15.6033 19.064V7.93763L25.7758 13.5016L15.6033 19.064Z" fill="white"/>
</svg>
